<svg xmlns="http://www.w3.org/2000/svg" viewBox="0 0 1440 320">
    <path fill="#0099ff" fill-opacity="1" d="M0,64L30,90.7C60,117,120,171,180,208C240,245,300,267,360,245.3C420,224,480,160,540,117.3C600,75,660,53,720,64C780,75,840,117,900,138.7C960,160,1020,160,1080,149.3C1140,139,1200,117,1260,138.7C1320,160,1380,224,1410,256L1440,288L1440,320L1410,320C1380,320,1320,320,1260,320C1200,320,1140,320,1080,320C1020,320,960,320,900,320C840,320,780,320,720,320C660,320,600,320,540,320C480,320,420,320,360,320C300,320,240,320,180,320C120,320,60,320,30,320L0,320Z"></path>
  </svg>